<?xml version="1.0" encoding="UTF-8"?>
<svg id="Layer_1" data-name="Layer 1" xmlns="http://www.w3.org/2000/svg" viewBox="0 0 960 960">
  <defs>
    <style>
      .cls-1, .cls-2, .cls-3, .cls-4 {
        stroke-width: 0px;
      }

      .cls-2 {
        fill: #ee2737;
      }

      .cls-3 {
        fill: #fff;
      }

      .cls-4 {
        fill: rgba(255, 255, 255, 0);
        fill-rule: evenodd;
      }
    </style>
  </defs>
  <path class="cls-4" d="M6.87,381.68h946.15v196.73H6.87v-196.73Z"/>
  <g>
    <ellipse class="cls-2" cx="102.62" cy="480.04" rx="92.3" ry="84.31"/>
    <path class="cls-3" d="M97.88,442.53c-.47-3.36-3.83-5.73-7.52-5.31-.06,0-.11.01-.17.02-3.73.73-6.14,4.03-5.46,7.44,1.28,6.59,1.9,13.27,1.85,19.96,0,2.27-2.01,4.12-4.51,4.13s-4.53-1.83-4.54-4.11l-.04-24.64c.15-3.16-2.17-5.97-5.54-6.73-3.71-.51-7.17,1.82-7.73,5.2-.06.39-.09.78-.07,1.17l.04,25c.05,2.36-2,4.32-4.6,4.39-2.57-.06-4.61-2.01-4.54-4.35,0-.03,0-.05,0-.08-.03-6.68.58-13.36,1.85-19.94.69-3.42-1.73-6.72-5.46-7.45-3.61-.56-7.03,1.65-7.64,4.93-.02.12-.04.24-.05.35-1.66,9.52-2.35,19.15-2.07,28.78.12,9.59,5.47,18.49,14.26,23.73,3.93,2.21,6.43,6.04,6.69,10.25l.73,14.73c.07,3.74,3.34,6.76,7.43,6.87,4.1-.11,7.37-3.13,7.43-6.86l.72-14.23c.28-4.21,2.87-8.02,6.87-10.13,8.48-4.84,13.75-13.2,14.06-22.3.46-10.32-.2-20.64-1.99-30.84ZM137.25,433.21c-17.58,0-26.38,24.28-26.38,40.33.12,8.29,4.68,15.98,12.21,20.6,3.49,2.09,5.68,5.57,5.95,9.37l.82,16.53c0,3.72,3.31,6.74,7.4,6.74,4.09,0,7.41-3.01,7.41-6.73h0s.84-16.53.84-16.53c.25-3.8,2.46-7.27,5.95-9.37,7.53-4.63,12.08-12.32,12.19-20.58,0-16.06-8.79-40.34-26.38-40.34Z"/>
  </g>
  <path class="cls-1" d="M263.95,523.2c7.81,10.2,20.85,16.02,34.49,15.39,16.08,0,27.9-9.37,27.9-22.13v-6.71h-.39c-8.79,7.85-20.82,11.96-33.12,11.32-19.46.5-37.69-8.62-47.63-23.84-9.98-15.24-10.17-34.19-.5-49.59,9.64-15.38,27.67-24.8,47.13-24.63,12.54-.73,24.86,3.24,34.1,10.98h.41v-9.21h27.51v91.33c0,26.56-23.06,44.97-55.42,44.97-21.22,1.05-41.7-7.25-55.04-22.3l20.55-15.58h.01ZM325.18,466.4c0-10.64-13.17-20.37-27.9-20.37-18.61,0-31.01,10.28-31.01,25.67-.54,7.29,2.45,14.45,8.2,19.53,5.74,5.08,13.66,7.59,21.63,6.85,16.1,0,29.09-9.21,29.09-20.72v-10.97h-.01ZM425.96,422.13c33.52,0,57.95,21.78,57.95,49.56s-24.41,49.55-57.95,49.55c-20.26,1.21-39.57-7.97-50.05-23.78-10.52-15.84-10.52-35.69,0-51.53,10.48-15.82,29.79-25.01,50.05-23.8h0ZM425.96,445.15c-16.06.13-28.98,12.06-28.87,26.67.04,14.61,13.07,26.44,29.13,26.44,16.07-.06,29.04-11.94,29.01-26.56.36-7.17-2.61-14.14-8.19-19.21-5.57-5.05-13.23-7.72-21.09-7.34h.01ZM511.63,447.09h-24.61v-22.3h24.6v-9.55c0-16.46,12.6-26.56,33.72-26.56h26.94v22.49h-23.45c-5.62,0-8.52,2.47-8.52,7.25v6.37h38.36v22.3h-38.35v71.51h-28.68v-71.51h-.01ZM637.59,422.13c33.52,0,57.95,21.78,57.95,49.56s-24.42,49.55-57.95,49.55c-20.26,1.21-39.58-7.96-50.07-23.78-10.52-15.85-10.52-35.7,0-51.54,10.49-15.82,29.8-25,50.07-23.79ZM637.59,445.15c-16.06.13-28.98,12.06-28.87,26.67.04,14.61,13.07,26.44,29.13,26.44,16.07-.06,29.04-11.94,29.01-26.56.36-7.17-2.61-14.14-8.19-19.21-5.57-5.05-13.23-7.72-21.09-7.34h.01ZM764.9,422.13c33.52,0,57.95,21.78,57.95,49.56s-24.41,49.55-57.95,49.55c-20.26,1.21-39.57-7.97-50.05-23.78-10.52-15.84-10.52-35.69,0-51.53,10.48-15.82,29.79-25.01,50.05-23.8ZM764.9,445.15c-16.06.13-28.98,12.06-28.87,26.67.04,14.61,13.07,26.44,29.13,26.44,16.07-.06,29.04-11.94,29.01-26.56.36-7.17-2.61-14.14-8.19-19.21-5.57-5.05-13.23-7.72-21.09-7.34h.01ZM889.13,422.13c12.1-.51,23.97,3.08,33.32,10.08h.41v-42.81h28.67v129.23h-26.55v-9.2h-.38c-9.17,8.28-21.79,12.59-34.68,11.85-14.75.7-29.14-4.26-39.68-13.66-10.58-9.43-16.36-22.44-15.95-35.9-.22-13.29,5.5-26.09,15.87-35.46,10.33-9.35,24.42-14.45,39-14.1v-.02ZM922.84,465.51c0-11.15-13.56-20.35-29.26-20.35-8.02-.54-15.93,2.03-21.75,7.08-5.81,5.05-9.06,12.12-8.87,19.46,0,16.11,12.02,26.37,30.61,26.37,16.29,0,29.26-9.21,29.26-20.72v-11.85Z"/>
</svg>