<?xml version="1.0" encoding="UTF-8"?>
<svg id="Layer_1" data-name="Layer 1" xmlns="http://www.w3.org/2000/svg" viewBox="0 0 960 960">
  <defs>
    <style>
      .cls-1, .cls-2, .cls-3, .cls-4, .cls-5, .cls-6, .cls-7 {
        stroke-width: 0px;
      }

      .cls-1, .cls-6, .cls-7 {
        fill-rule: evenodd;
      }

      .cls-3 {
        fill: #ee2737;
      }

      .cls-4, .cls-6 {
        fill: #00a83b;
      }

      .cls-5 {
        fill: #fff;
      }

      .cls-7 {
        fill: rgba(255, 255, 255, 0);
      }
    </style>
  </defs>
  <g>
    <path class="cls-7" d="M6.92,399.34h946.15v196.73H6.92v-196.73Z"/>
    <g>
      <ellipse class="cls-3" cx="102.68" cy="497.7" rx="92.3" ry="84.31"/>
      <path class="cls-5" d="M97.93,460.19c-.47-3.36-3.83-5.73-7.52-5.31-.06,0-.11.01-.17.02-3.73.73-6.14,4.03-5.46,7.44,1.28,6.59,1.9,13.27,1.85,19.96,0,2.27-2.01,4.12-4.51,4.13-2.5,0-4.53-1.83-4.54-4.11l-.04-24.64c.15-3.16-2.17-5.97-5.54-6.73-3.71-.51-7.17,1.82-7.73,5.2-.06.39-.09.78-.07,1.17l.04,25c.05,2.36-2,4.32-4.6,4.39-2.57-.06-4.61-2.01-4.54-4.35,0-.03,0-.05,0-.08-.03-6.68.58-13.36,1.85-19.94.69-3.42-1.73-6.72-5.46-7.45-3.61-.56-7.03,1.65-7.64,4.93-.02.12-.04.24-.05.35-1.66,9.52-2.35,19.15-2.07,28.78.12,9.59,5.47,18.49,14.26,23.73,3.93,2.21,6.43,6.04,6.69,10.25l.73,14.73c.07,3.74,3.34,6.76,7.43,6.87,4.1-.11,7.37-3.13,7.43-6.86l.72-14.23c.28-4.21,2.87-8.02,6.87-10.13,8.48-4.84,13.75-13.2,14.06-22.3.46-10.32-.2-20.64-1.99-30.84ZM137.3,450.87c-17.58,0-26.38,24.28-26.38,40.33.12,8.29,4.68,15.98,12.21,20.6,3.49,2.09,5.68,5.57,5.95,9.37l.82,16.53c0,3.72,3.31,6.74,7.4,6.74,4.09,0,7.41-3.01,7.41-6.73h0s.84-16.53.84-16.53c.25-3.8,2.46-7.27,5.95-9.37,7.53-4.63,12.08-12.32,12.19-20.58,0-16.06-8.79-40.34-26.38-40.34Z"/>
    </g>
    <path class="cls-2" d="M264.01,540.86c7.81,10.2,20.85,16.02,34.49,15.39,16.08,0,27.9-9.37,27.9-22.13v-6.71h-.39c-8.79,7.85-20.82,11.96-33.12,11.32-19.46.5-37.69-8.62-47.63-23.84-9.98-15.24-10.17-34.19-.5-49.59,9.64-15.38,27.67-24.8,47.13-24.63,12.54-.73,24.86,3.24,34.1,10.98h.41v-9.21h27.51v91.33c0,26.56-23.06,44.97-55.42,44.97-21.22,1.05-41.7-7.25-55.04-22.3l20.55-15.58h.01ZM325.24,484.06c0-10.64-13.17-20.37-27.9-20.37-18.61,0-31.01,10.28-31.01,25.67-.54,7.29,2.45,14.45,8.2,19.53,5.74,5.08,13.66,7.59,21.63,6.85,16.1,0,29.09-9.21,29.09-20.72v-10.97h-.01ZM426.02,439.79c33.52,0,57.95,21.78,57.95,49.56s-24.41,49.55-57.95,49.55c-20.26,1.21-39.56-7.97-50.05-23.78-10.52-15.84-10.52-35.69,0-51.53,10.48-15.82,29.79-25.01,50.05-23.8h0ZM426.02,462.81c-16.06.13-28.98,12.06-28.87,26.67.04,14.61,13.07,26.44,29.13,26.44,16.07-.06,29.04-11.94,29.01-26.56.36-7.17-2.61-14.14-8.19-19.21-5.57-5.05-13.23-7.72-21.09-7.34h.01ZM511.68,464.75h-24.61v-22.3h24.6v-9.55c0-16.46,12.6-26.56,33.72-26.56h26.94v22.49h-23.45c-5.62,0-8.52,2.47-8.52,7.25v6.37h38.36v22.3h-38.35v71.51h-28.68v-71.51h-.01ZM637.64,439.79c33.52,0,57.95,21.78,57.95,49.56s-24.42,49.55-57.95,49.55c-20.26,1.21-39.58-7.96-50.07-23.78-10.52-15.85-10.52-35.7,0-51.54,10.49-15.82,29.8-25,50.07-23.79ZM637.64,462.81c-16.06.13-28.98,12.06-28.87,26.67.04,14.61,13.07,26.44,29.13,26.44,16.07-.06,29.04-11.94,29.01-26.56.36-7.17-2.61-14.14-8.19-19.21-5.57-5.05-13.23-7.72-21.09-7.34h.01ZM764.95,439.79c33.52,0,57.95,21.78,57.95,49.56s-24.41,49.55-57.95,49.55c-20.26,1.21-39.56-7.97-50.05-23.78-10.52-15.84-10.52-35.69,0-51.53,10.48-15.82,29.79-25.01,50.05-23.8ZM764.95,462.81c-16.06.13-28.98,12.06-28.87,26.67.04,14.61,13.07,26.44,29.13,26.44,16.07-.06,29.04-11.94,29.01-26.56.36-7.17-2.61-14.14-8.19-19.21-5.57-5.05-13.23-7.72-21.09-7.34h.01ZM889.18,439.79c12.1-.51,23.97,3.08,33.32,10.08h.41v-42.81h28.67v129.23h-26.55v-9.2h-.38c-9.17,8.28-21.79,12.59-34.68,11.85-14.75.7-29.14-4.26-39.68-13.66-10.58-9.43-16.36-22.44-15.95-35.9-.22-13.29,5.5-26.09,15.87-35.46,10.33-9.35,24.42-14.45,39-14.1v-.02ZM922.89,483.17c0-11.15-13.56-20.35-29.26-20.35-8.02-.54-15.93,2.03-21.75,7.08-5.81,5.05-9.06,12.12-8.87,19.46,0,16.11,12.02,26.37,30.61,26.37,16.29,0,29.26-9.21,29.26-20.72v-11.85Z"/>
  </g>
  <g>
    <path class="cls-2" d="M242.07,631.21v-22.47h8.62c1.52,0,2.68.07,3.48.21,1.12.18,2.06.53,2.82,1.05.76.52,1.37,1.24,1.83,2.17.46.93.69,1.95.69,3.07,0,1.91-.62,3.53-1.85,4.85-1.24,1.32-3.47,1.98-6.7,1.98h-5.86v9.14h-3.02ZM245.09,619.42h5.91c1.95,0,3.34-.36,4.16-1.07.82-.71,1.23-1.72,1.23-3.02,0-.94-.24-1.75-.72-2.41-.48-.67-1.12-1.11-1.91-1.33-.51-.13-1.45-.2-2.82-.2h-5.84v8.03Z"/>
    <path class="cls-2" d="M261.96,623.07c0-3.01.85-5.25,2.56-6.7,1.42-1.21,3.16-1.81,5.21-1.81,2.28,0,4.14.73,5.58,2.2,1.44,1.47,2.17,3.49,2.17,6.08,0,2.09-.32,3.74-.96,4.94-.64,1.2-1.57,2.13-2.79,2.8-1.22.66-2.55,1-4,1-2.32,0-4.19-.73-5.62-2.19-1.43-1.46-2.14-3.57-2.14-6.32ZM264.84,623.07c0,2.08.46,3.65,1.39,4.68.92,1.04,2.09,1.56,3.49,1.56s2.55-.52,3.48-1.56c.92-1.04,1.39-2.63,1.39-4.77,0-2.01-.47-3.54-1.39-4.58-.93-1.04-2.09-1.56-3.47-1.56s-2.57.52-3.49,1.55c-.92,1.03-1.39,2.59-1.39,4.67Z"/>
    <path class="cls-2" d="M283.81,631.21l-5.07-16.28h2.9l2.63,9.4.98,3.5c.04-.17.33-1.29.86-3.36l2.63-9.53h2.88l2.48,9.44.83,3.11.95-3.14,2.84-9.41h2.73l-5.18,16.28h-2.91l-2.63-9.75-.64-2.77-3.35,12.52h-2.93Z"/>
    <path class="cls-2" d="M315.14,625.97l2.9.35c-.46,1.67-1.3,2.96-2.54,3.88-1.24.92-2.82,1.38-4.74,1.38-2.42,0-4.34-.73-5.76-2.2-1.42-1.47-2.13-3.52-2.13-6.17s.72-4.86,2.15-6.38c1.43-1.51,3.29-2.27,5.58-2.27s4.02.74,5.42,2.22c1.4,1.48,2.1,3.57,2.1,6.25,0,.16,0,.41-.02.74h-12.34c.1,1.79.62,3.16,1.54,4.11s2.08,1.43,3.46,1.43c1.03,0,1.91-.27,2.63-.8.73-.53,1.3-1.38,1.73-2.54ZM305.93,621.5h9.24c-.12-1.37-.48-2.4-1.06-3.08-.89-1.06-2.05-1.59-3.48-1.59-1.29,0-2.37.42-3.25,1.27-.88.85-1.36,1.98-1.46,3.4Z"/>
    <path class="cls-2" d="M321.53,631.21v-16.28h2.53v2.47c.64-1.15,1.24-1.92,1.78-2.28.55-.37,1.15-.55,1.8-.55.95,0,1.91.3,2.88.89l-.97,2.56c-.69-.4-1.37-.6-2.06-.6-.61,0-1.16.18-1.65.54-.49.36-.84.87-1.04,1.51-.31.98-.47,2.05-.47,3.22v8.52h-2.81Z"/>
    <path class="cls-2" d="M343.52,625.97l2.9.35c-.46,1.67-1.3,2.96-2.54,3.88-1.24.92-2.82,1.38-4.74,1.38-2.42,0-4.34-.73-5.76-2.2-1.42-1.47-2.13-3.52-2.13-6.17s.72-4.86,2.15-6.38c1.43-1.51,3.29-2.27,5.58-2.27s4.02.74,5.42,2.22c1.4,1.48,2.1,3.57,2.1,6.25,0,.16,0,.41-.02.74h-12.34c.1,1.79.62,3.16,1.54,4.11s2.08,1.43,3.46,1.43c1.03,0,1.91-.27,2.63-.8.73-.53,1.3-1.38,1.73-2.54ZM334.31,621.5h9.24c-.12-1.37-.48-2.4-1.06-3.08-.89-1.06-2.05-1.59-3.48-1.59-1.29,0-2.37.42-3.25,1.27-.88.85-1.36,1.98-1.46,3.4Z"/>
    <path class="cls-2" d="M360.68,631.21v-2.05c-1.05,1.61-2.59,2.42-4.63,2.42-1.32,0-2.53-.36-3.64-1.07-1.11-.71-1.96-1.71-2.57-3-.61-1.28-.91-2.76-.91-4.42s.28-3.1.83-4.42c.55-1.32,1.38-2.34,2.48-3.04,1.1-.7,2.33-1.06,3.69-1.06,1,0,1.89.21,2.67.62.78.41,1.41.95,1.9,1.62v-8.06h2.79v22.47h-2.6ZM351.81,623.08c0,2.08.45,3.64,1.34,4.67.89,1.03,1.95,1.55,3.16,1.55s2.27-.49,3.12-1.48c.86-.99,1.29-2.49,1.29-4.51,0-2.23-.44-3.86-1.31-4.91-.87-1.04-1.95-1.56-3.23-1.56s-2.29.5-3.13,1.5c-.84,1-1.25,2.58-1.25,4.74Z"/>
    <path class="cls-2" d="M379.15,631.21h-2.6v-22.47h2.81v8.02c1.18-1.46,2.7-2.19,4.54-2.19,1.02,0,1.98.2,2.89.61.91.4,1.66.97,2.24,1.7.59.73,1.05,1.61,1.38,2.64.33,1.03.5,2.14.5,3.31,0,2.79-.7,4.95-2.1,6.47-1.4,1.52-3.09,2.28-5.05,2.28s-3.49-.8-4.6-2.41v2.04ZM379.12,622.95c0,1.95.27,3.36.81,4.23.88,1.42,2.08,2.13,3.58,2.13,1.23,0,2.29-.52,3.18-1.57.89-1.05,1.34-2.61,1.34-4.68s-.43-3.69-1.29-4.71c-.86-1.01-1.89-1.52-3.11-1.52s-2.29.52-3.18,1.57c-.89,1.05-1.34,2.56-1.34,4.54Z"/>
    <path class="cls-2" d="M394.19,637.48l-.31-2.59c.61.16,1.15.25,1.61.25.62,0,1.12-.1,1.5-.31s.68-.49.92-.86c.18-.28.46-.96.86-2.05.05-.15.13-.38.25-.67l-6.28-16.31h3.02l3.44,9.43c.45,1.2.85,2.45,1.2,3.77.32-1.27.71-2.5,1.15-3.71l3.54-9.49h2.81l-6.3,16.55c-.68,1.79-1.2,3.02-1.57,3.69-.5.91-1.07,1.58-1.71,2-.64.42-1.41.64-2.31.64-.54,0-1.14-.11-1.81-.34Z"/>
  </g>
  <g>
    <circle class="cls-4" cx="463.19" cy="627.77" r="14.6" transform="translate(-192.2 1050.98) rotate(-86.43)"/>
    <path class="cls-6" d="M456.99,658.09h0c1.01-3.48-.63-7.12-3.92-8.65-8.14-3.81-13.79-12.08-13.79-21.66,0-13.2,10.7-23.91,23.91-23.91s23.91,10.7,23.91,23.91c0,9.52-5.56,17.74-13.61,21.58-3.37,1.61-4.97,5.45-3.75,8.98h0c.71,2.04,2.1,3.51,4.08,4.34,1.99.83,4.02.78,5.96-.15,12.96-6.2,21.91-19.43,21.91-34.76,0-21.26-17.24-38.5-38.5-38.5s-38.5,17.24-38.5,38.5c0,15.44,9.08,28.75,22.2,34.89,2,.94,4.09.95,6.1.04,2.01-.91,3.38-2.49,4-4.61Z"/>
  </g>
  <path class="cls-1" d="M609.05,660.42c5.09.5,12.4.45,16.08-2.51,1.94-1.56,2.78-3.06,3.34-6.27.76-4.38.38-40.49.38-46.82l-10.17.12v28.01c0,22.12,1.18,17.32-9.63,18.38v9.08h0ZM541.53,614.34c6.07-1.57,12.61,1.25,13.37,6.78.99,7.19-1.38,11.34-7.49,12.71-14.82,3.31-18.57-16.2-5.88-19.48h0ZM590.02,614.08c13.99-2.53,16.89,17.22,4.76,19.92-6.55,1.46-11.73-2.04-12.87-7.25-1.32-6.05,1.39-11.46,8.1-12.67h0ZM571.51,625.93c-2.47-26.39,39.44-28.14,41.07-3.52.79,11.84-7.7,20.2-18.88,20.82-11,.6-21.11-5.67-22.19-17.3h0ZM555.44,609.1c-5.08-4.22-14.19-6.01-21.47-2.23-18.08,9.4-11.6,38.8,12.47,36.03,5.83-.67,7.05-3.11,9.11-4.18.13,2.84-.09,5.77-1.37,8.03-.88,1.56-3.06,3.28-5.73,3.91-7.48,1.77-10.88-.93-15.09-3.75l-6.33,6.14c.77,1.4,2.04,2.21,3.55,3.21,9.32,6.17,24.44,6.19,31.75-3.96,4.03-5.6,2.94-14.85,2.94-22.42v-25.03h-9.85s.01,4.26.01,4.26h0ZM645.19,620.16c1.56-9.74,18.59-9.17,19.45,0h-19.45ZM674.7,627.38h-29.72c1.7,8.54,15.02,10.24,20.77,3.83,1.63.72,5.75,3.54,6.91,4.81-4.37,6.47-16.75,9.58-26.58,5.33-20.3-8.79-11.53-41.22,13.64-35.94,11.34,2.38,14.98,11.3,14.98,21.97h0ZM703.33,620.58l16.74-15.48-13.26-.3-16.33,15.32.09-25.2-9.85-.04.11,48.47h9.63l.03-10.45,6.43-5.56,12.69,16.02,10.75-.09-4.15-5.53-11.95-15.6-.92-1.56Z"/>
  <g>
    <path class="cls-2" d="M184.43,371.29v-39.59h5.75l22.25,31.08v-31.08h5.37v39.59h-5.75l-22.25-31.11v31.11h-5.37Z"/>
    <path class="cls-2" d="M225.52,352.01c0-6.57,1.89-11.72,5.66-15.43,3.78-3.72,8.65-5.58,14.62-5.58,3.91,0,7.44.87,10.58,2.62,3.14,1.75,5.53,4.18,7.18,7.31,1.65,3.12,2.47,6.67,2.47,10.63s-.87,7.61-2.6,10.78c-1.73,3.17-4.19,5.57-7.37,7.2-3.18,1.63-6.61,2.44-10.29,2.44-3.99,0-7.55-.9-10.69-2.7-3.14-1.8-5.52-4.26-7.14-7.37-1.62-3.11-2.43-6.41-2.43-9.88ZM231.29,352.09c0,4.77,1.37,8.53,4.12,11.28,2.75,2.75,6.19,4.12,10.33,4.12s7.69-1.39,10.42-4.16c2.73-2.77,4.09-6.71,4.09-11.8,0-3.22-.58-6.04-1.75-8.44-1.17-2.4-2.87-4.27-5.11-5.59-2.24-1.32-4.76-1.98-7.56-1.98-3.97,0-7.38,1.27-10.24,3.82-2.86,2.55-4.29,6.8-4.29,12.76Z"/>
    <path class="cls-2" d="M280.65,371.29l-11.24-39.59h5.75l6.44,25.95c.69,2.72,1.29,5.42,1.79,8.1,1.08-4.23,1.71-6.67,1.91-7.32l8.06-26.74h6.76l6.07,20.04c1.52,4.97,2.62,9.64,3.29,14.02.54-2.5,1.24-5.37,2.11-8.62l6.65-25.44h5.63l-11.62,39.59h-5.4l-8.93-30.17c-.75-2.52-1.19-4.07-1.33-4.64-.44,1.82-.86,3.37-1.24,4.64l-8.99,30.17h-5.72Z"/>
    <path class="cls-2" d="M337.63,371.29l16.27-39.59h6.04l17.34,39.59h-6.39l-4.94-11.99h-17.71l-4.65,11.99h-5.95ZM349.85,355.04h14.36l-4.42-10.96c-1.35-3.33-2.35-6.07-3-8.21-.54,2.54-1.3,5.06-2.28,7.56l-4.65,11.61Z"/>
    <path class="cls-2" d="M389.47,371.29l-16.41-39.59h6.07l11.01,28.76c.89,2.3,1.63,4.47,2.22,6.48.65-2.16,1.42-4.32,2.28-6.48l11.44-28.76h5.72l-16.59,39.59h-5.75Z"/>
    <path class="cls-2" d="M407.79,371.29l16.27-39.59h6.04l17.34,39.59h-6.39l-4.94-11.99h-17.71l-4.65,11.99h-5.95ZM420.01,355.04h14.36l-4.42-10.96c-1.35-3.33-2.35-6.07-3-8.21-.54,2.54-1.3,5.06-2.28,7.56l-4.65,11.61Z"/>
    <path class="cls-2" d="M452.86,371.29v-39.59h5.61v39.59h-5.61Z"/>
    <path class="cls-2" d="M468.12,371.29v-39.59h5.61v34.92h20.86v4.67h-26.47Z"/>
    <path class="cls-2" d="M496.61,371.29l16.27-39.59h6.04l17.34,39.59h-6.39l-4.94-11.99h-17.71l-4.65,11.99h-5.95ZM508.83,355.04h14.36l-4.42-10.96c-1.35-3.33-2.35-6.07-3-8.21-.54,2.54-1.3,5.06-2.28,7.56l-4.65,11.61Z"/>
    <path class="cls-2" d="M540.5,371.29v-39.59h15.89c3.24,0,5.83.4,7.79,1.2,1.95.8,3.49,2.04,4.59,3.7,1.11,1.67,1.66,3.41,1.66,5.23,0,1.69-.49,3.29-1.47,4.78-.98,1.49-2.47,2.7-4.45,3.62,2.56.7,4.53,1.9,5.91,3.59,1.38,1.69,2.07,3.69,2.07,6,0,1.85-.42,3.58-1.26,5.17-.84,1.59-1.87,2.82-3.11,3.69-1.23.86-2.78,1.52-4.64,1.96-1.86.44-4.14.66-6.83.66h-16.15ZM546.11,348.34h9.16c2.48,0,4.27-.15,5.35-.46,1.43-.4,2.5-1.05,3.22-1.97.72-.92,1.08-2.07,1.08-3.46,0-1.31-.34-2.47-1.01-3.47-.67-1-1.64-1.68-2.89-2.05-1.25-.37-3.4-.55-6.44-.55h-8.47v11.96ZM546.11,366.62h10.55c1.81,0,3.08-.06,3.81-.19,1.29-.22,2.37-.58,3.24-1.08.87-.5,1.58-1.24,2.14-2.2.56-.96.84-2.07.84-3.34,0-1.48-.4-2.76-1.21-3.85-.81-1.09-1.93-1.85-3.37-2.3-1.44-.44-3.5-.66-6.2-.66h-9.8v13.61Z"/>
    <path class="cls-2" d="M579.97,371.29v-39.59h5.61v34.92h20.86v4.67h-26.47Z"/>
    <path class="cls-2" d="M613.23,371.29v-39.59h30.63v4.67h-25.02v12.13h23.43v4.65h-23.43v13.48h26.01v4.67h-31.61Z"/>
    <path class="cls-2" d="M667.32,352.01c0-6.57,1.89-11.72,5.66-15.43,3.78-3.72,8.65-5.58,14.62-5.58,3.91,0,7.44.87,10.58,2.62,3.14,1.75,5.53,4.18,7.18,7.31,1.65,3.12,2.47,6.67,2.47,10.63s-.87,7.61-2.6,10.78c-1.73,3.17-4.19,5.57-7.37,7.2-3.18,1.63-6.61,2.44-10.29,2.44-3.99,0-7.55-.9-10.69-2.7-3.14-1.8-5.52-4.26-7.14-7.37-1.62-3.11-2.43-6.41-2.43-9.88ZM673.1,352.09c0,4.77,1.37,8.53,4.12,11.28,2.74,2.75,6.19,4.12,10.33,4.12s7.69-1.39,10.42-4.16c2.73-2.77,4.09-6.71,4.09-11.8,0-3.22-.58-6.04-1.75-8.44-1.17-2.4-2.87-4.27-5.11-5.59-2.24-1.32-4.76-1.98-7.56-1.98-3.97,0-7.38,1.27-10.24,3.82-2.86,2.55-4.29,6.8-4.29,12.76Z"/>
    <path class="cls-2" d="M715,371.29v-39.59h5.75l22.25,31.08v-31.08h5.37v39.59h-5.75l-22.25-31.11v31.11h-5.37Z"/>
  </g>
</svg>